<svg width="1023" height="595" viewBox="0 0 1023 595" fill="none" xmlns="http://www.w3.org/2000/svg">
<path d="M1023 579.44C985.788 588.912 962.771 579.856 942.119 548.816L795.255 345.424L774.027 317.264L602.515 549.488C582.918 577.424 562.362 589.584 525.79 579.696L745.415 284.592L540.943 18.0323C576.109 11.1843 600.405 14.6723 621.984 46.1923L774.315 252.112L927.765 47.3123C947.426 19.3763 968.557 8.75228 1003.85 19.0563L924.568 124.272L817.153 264.272C804.366 280.272 806.124 291.216 817.888 306.672L1023 579.44ZM0.25575 279.664L18.2222 191.216C67.1344 16.1763 267.578 -56.5597 405.811 51.6003C486.596 115.216 506.673 205.2 502.677 306H47.3138C40.4724 487.44 170.937 596.944 337.27 541.072C395.613 521.456 429.98 475.728 447.179 418.512C455.906 389.84 470.356 385.36 497.274 393.552C483.527 465.104 452.518 524.88 386.982 562.288C289.061 618.288 149.294 600.176 75.7659 522.352C31.9687 477.2 13.8744 419.984 5.75438 358.8C4.47563 348.688 1.91812 339.056 0 329.36C0.1705 312.806 0.25575 296.251 0.25575 279.696V279.664ZM48.1449 267.504H459.647C456.961 136.304 375.345 43.1203 263.806 42.3203C141.366 41.3603 53.4518 132.336 48.1449 267.504Z" fill="#4AAD4E"/>
</svg>
